<mxfile host="app.diagrams.net" modified="2023-10-24T05:19:50.576Z" agent="Mozilla/5.0 (Windows NT 10.0; Win64; x64) AppleWebKit/537.36 (KHTML, like Gecko) Chrome/116.0.5845.888 YaBrowser/23.9.2.888 Yowser/2.5 Safari/537.36" etag="Yy9_ymJnhikXmbnL0roA" version="22.0.6" type="device">
  <diagram id="C5RBs43oDa-KdzZeNtuy" name="Page-1">
    <mxGraphModel dx="1235" dy="722" grid="1" gridSize="10" guides="1" tooltips="1" connect="1" arrows="1" fold="1" page="1" pageScale="1" pageWidth="827" pageHeight="1169" math="0" shadow="0">
      <root>
        <mxCell id="WIyWlLk6GJQsqaUBKTNV-0" />
        <mxCell id="WIyWlLk6GJQsqaUBKTNV-1" parent="WIyWlLk6GJQsqaUBKTNV-0" />
        <mxCell id="RhNl7WLVLyuLrfutjqLm-0" value="Vehicle" style="swimlane;fontStyle=0;childLayout=stackLayout;horizontal=1;startSize=30;horizontalStack=0;resizeParent=1;resizeParentMax=0;resizeLast=0;collapsible=1;marginBottom=0;whiteSpace=wrap;html=1;" parent="WIyWlLk6GJQsqaUBKTNV-1" vertex="1">
          <mxGeometry x="310" y="140" width="210" height="210" as="geometry">
            <mxRectangle x="314" y="60" width="80" height="30" as="alternateBounds" />
          </mxGeometry>
        </mxCell>
        <mxCell id="RhNl7WLVLyuLrfutjqLm-2" value="- maxspeed: int" style="text;strokeColor=none;fillColor=none;align=left;verticalAlign=middle;spacingLeft=4;spacingRight=4;overflow=hidden;points=[[0,0.5],[1,0.5]];portConstraint=eastwest;rotatable=0;whiteSpace=wrap;html=1;" parent="RhNl7WLVLyuLrfutjqLm-0" vertex="1">
          <mxGeometry y="30" width="210" height="30" as="geometry" />
        </mxCell>
        <mxCell id="RhNl7WLVLyuLrfutjqLm-5" value="- type: String" style="text;strokeColor=none;fillColor=none;align=left;verticalAlign=middle;spacingLeft=4;spacingRight=4;overflow=hidden;points=[[0,0.5],[1,0.5]];portConstraint=eastwest;rotatable=0;whiteSpace=wrap;html=1;" parent="RhNl7WLVLyuLrfutjqLm-0" vertex="1">
          <mxGeometry y="60" width="210" height="30" as="geometry" />
        </mxCell>
        <mxCell id="RhNl7WLVLyuLrfutjqLm-4" value="" style="endArrow=none;html=1;rounded=0;exitX=-0.008;exitY=0.873;exitDx=0;exitDy=0;exitPerimeter=0;entryX=1;entryY=0.832;entryDx=0;entryDy=0;entryPerimeter=0;" parent="RhNl7WLVLyuLrfutjqLm-0" source="RhNl7WLVLyuLrfutjqLm-5" target="RhNl7WLVLyuLrfutjqLm-5" edge="1">
          <mxGeometry width="50" height="50" relative="1" as="geometry">
            <mxPoint y="89.50000000000003" as="sourcePoint" />
            <mxPoint x="200" y="90.30999999999997" as="targetPoint" />
            <Array as="points" />
          </mxGeometry>
        </mxCell>
        <mxCell id="5K2qxwyrS59z6yV5sacj-1" value="+ Vehicle(int maxspeed, String type)" style="text;strokeColor=none;fillColor=none;align=left;verticalAlign=middle;spacingLeft=4;spacingRight=4;overflow=hidden;points=[[0,0.5],[1,0.5]];portConstraint=eastwest;rotatable=0;whiteSpace=wrap;html=1;" vertex="1" parent="RhNl7WLVLyuLrfutjqLm-0">
          <mxGeometry y="90" width="210" height="30" as="geometry" />
        </mxCell>
        <mxCell id="RhNl7WLVLyuLrfutjqLm-3" value="+ getMaxspeed(): int" style="text;strokeColor=none;fillColor=none;align=left;verticalAlign=middle;spacingLeft=4;spacingRight=4;overflow=hidden;points=[[0,0.5],[1,0.5]];portConstraint=eastwest;rotatable=0;whiteSpace=wrap;html=1;" parent="RhNl7WLVLyuLrfutjqLm-0" vertex="1">
          <mxGeometry y="120" width="210" height="30" as="geometry" />
        </mxCell>
        <mxCell id="RhNl7WLVLyuLrfutjqLm-6" value="+ getType(): str" style="text;strokeColor=none;fillColor=none;align=left;verticalAlign=middle;spacingLeft=4;spacingRight=4;overflow=hidden;points=[[0,0.5],[1,0.5]];portConstraint=eastwest;rotatable=0;whiteSpace=wrap;html=1;" parent="RhNl7WLVLyuLrfutjqLm-0" vertex="1">
          <mxGeometry y="150" width="210" height="30" as="geometry" />
        </mxCell>
        <mxCell id="RhNl7WLVLyuLrfutjqLm-7" value="+&amp;nbsp;calculateAllowedSpeed(): double" style="text;strokeColor=none;fillColor=none;align=left;verticalAlign=middle;spacingLeft=4;spacingRight=4;overflow=hidden;points=[[0,0.5],[1,0.5]];portConstraint=eastwest;rotatable=0;whiteSpace=wrap;html=1;" parent="RhNl7WLVLyuLrfutjqLm-0" vertex="1">
          <mxGeometry y="180" width="210" height="30" as="geometry" />
        </mxCell>
        <mxCell id="RhNl7WLVLyuLrfutjqLm-8" value="Bus" style="swimlane;fontStyle=0;childLayout=stackLayout;horizontal=1;startSize=30;horizontalStack=0;resizeParent=1;resizeParentMax=0;resizeLast=0;collapsible=1;marginBottom=0;whiteSpace=wrap;html=1;" parent="WIyWlLk6GJQsqaUBKTNV-1" vertex="1">
          <mxGeometry y="230" width="200" height="110" as="geometry">
            <mxRectangle x="100" y="280" width="60" height="30" as="alternateBounds" />
          </mxGeometry>
        </mxCell>
        <mxCell id="RhNl7WLVLyuLrfutjqLm-12" value="&amp;nbsp;" style="text;strokeColor=none;fillColor=none;align=left;verticalAlign=middle;spacingLeft=4;spacingRight=4;overflow=hidden;points=[[0,0.5],[1,0.5]];portConstraint=eastwest;rotatable=0;whiteSpace=wrap;html=1;" parent="RhNl7WLVLyuLrfutjqLm-8" vertex="1">
          <mxGeometry y="30" width="200" height="20" as="geometry" />
        </mxCell>
        <mxCell id="5K2qxwyrS59z6yV5sacj-2" value="+ Bus(int maxspeed)" style="text;strokeColor=none;fillColor=none;align=left;verticalAlign=middle;spacingLeft=4;spacingRight=4;overflow=hidden;points=[[0,0.5],[1,0.5]];portConstraint=eastwest;rotatable=0;whiteSpace=wrap;html=1;" vertex="1" parent="RhNl7WLVLyuLrfutjqLm-8">
          <mxGeometry y="50" width="200" height="30" as="geometry" />
        </mxCell>
        <mxCell id="RhNl7WLVLyuLrfutjqLm-14" value="" style="endArrow=none;html=1;rounded=0;exitX=-0.01;exitY=1.007;exitDx=0;exitDy=0;exitPerimeter=0;entryX=1.002;entryY=1.007;entryDx=0;entryDy=0;entryPerimeter=0;" parent="RhNl7WLVLyuLrfutjqLm-8" edge="1">
          <mxGeometry width="50" height="50" relative="1" as="geometry">
            <mxPoint y="50.000000000000036" as="sourcePoint" />
            <mxPoint x="202.4000000000001" y="50.000000000000036" as="targetPoint" />
          </mxGeometry>
        </mxCell>
        <mxCell id="RhNl7WLVLyuLrfutjqLm-13" value="+&amp;nbsp;calculateAllowedSpeed(): double" style="text;strokeColor=none;fillColor=none;align=left;verticalAlign=middle;spacingLeft=4;spacingRight=4;overflow=hidden;points=[[0,0.5],[1,0.5]];portConstraint=eastwest;rotatable=0;whiteSpace=wrap;html=1;" parent="RhNl7WLVLyuLrfutjqLm-8" vertex="1">
          <mxGeometry y="80" width="200" height="30" as="geometry" />
        </mxCell>
        <mxCell id="5K2qxwyrS59z6yV5sacj-3" value="Extends" style="endArrow=block;endSize=16;endFill=0;html=1;rounded=0;exitX=1.004;exitY=0.134;exitDx=0;exitDy=0;exitPerimeter=0;" edge="1" parent="WIyWlLk6GJQsqaUBKTNV-1" source="RhNl7WLVLyuLrfutjqLm-8" target="RhNl7WLVLyuLrfutjqLm-0">
          <mxGeometry width="160" relative="1" as="geometry">
            <mxPoint x="180" y="410" as="sourcePoint" />
            <mxPoint x="340" y="410" as="targetPoint" />
          </mxGeometry>
        </mxCell>
        <mxCell id="5K2qxwyrS59z6yV5sacj-4" value="Car" style="swimlane;fontStyle=0;childLayout=stackLayout;horizontal=1;startSize=30;horizontalStack=0;resizeParent=1;resizeParentMax=0;resizeLast=0;collapsible=1;marginBottom=0;whiteSpace=wrap;html=1;" vertex="1" parent="WIyWlLk6GJQsqaUBKTNV-1">
          <mxGeometry x="620" y="190" width="200" height="110" as="geometry">
            <mxRectangle x="100" y="280" width="60" height="30" as="alternateBounds" />
          </mxGeometry>
        </mxCell>
        <mxCell id="5K2qxwyrS59z6yV5sacj-5" value="&amp;nbsp;" style="text;strokeColor=none;fillColor=none;align=left;verticalAlign=middle;spacingLeft=4;spacingRight=4;overflow=hidden;points=[[0,0.5],[1,0.5]];portConstraint=eastwest;rotatable=0;whiteSpace=wrap;html=1;" vertex="1" parent="5K2qxwyrS59z6yV5sacj-4">
          <mxGeometry y="30" width="200" height="20" as="geometry" />
        </mxCell>
        <mxCell id="5K2qxwyrS59z6yV5sacj-6" value="+ Car(int maxspeed)" style="text;strokeColor=none;fillColor=none;align=left;verticalAlign=middle;spacingLeft=4;spacingRight=4;overflow=hidden;points=[[0,0.5],[1,0.5]];portConstraint=eastwest;rotatable=0;whiteSpace=wrap;html=1;" vertex="1" parent="5K2qxwyrS59z6yV5sacj-4">
          <mxGeometry y="50" width="200" height="30" as="geometry" />
        </mxCell>
        <mxCell id="5K2qxwyrS59z6yV5sacj-7" value="" style="endArrow=none;html=1;rounded=0;exitX=-0.01;exitY=1.007;exitDx=0;exitDy=0;exitPerimeter=0;entryX=1.002;entryY=1.007;entryDx=0;entryDy=0;entryPerimeter=0;" edge="1" parent="5K2qxwyrS59z6yV5sacj-4">
          <mxGeometry width="50" height="50" relative="1" as="geometry">
            <mxPoint y="50.000000000000036" as="sourcePoint" />
            <mxPoint x="202.4000000000001" y="50.000000000000036" as="targetPoint" />
          </mxGeometry>
        </mxCell>
        <mxCell id="5K2qxwyrS59z6yV5sacj-8" value="+&amp;nbsp;calculateAllowedSpeed(): double" style="text;strokeColor=none;fillColor=none;align=left;verticalAlign=middle;spacingLeft=4;spacingRight=4;overflow=hidden;points=[[0,0.5],[1,0.5]];portConstraint=eastwest;rotatable=0;whiteSpace=wrap;html=1;" vertex="1" parent="5K2qxwyrS59z6yV5sacj-4">
          <mxGeometry y="80" width="200" height="30" as="geometry" />
        </mxCell>
        <mxCell id="5K2qxwyrS59z6yV5sacj-9" value="Extends" style="endArrow=block;endSize=16;endFill=0;html=1;rounded=0;" edge="1" parent="WIyWlLk6GJQsqaUBKTNV-1" source="5K2qxwyrS59z6yV5sacj-4" target="RhNl7WLVLyuLrfutjqLm-0">
          <mxGeometry width="160" relative="1" as="geometry">
            <mxPoint x="510" y="390" as="sourcePoint" />
            <mxPoint x="619" y="390" as="targetPoint" />
          </mxGeometry>
        </mxCell>
      </root>
    </mxGraphModel>
  </diagram>
</mxfile>
